<?xml version="1.0" encoding="utf-8"?>
<!-- Generator: Adobe Illustrator 23.0.3, SVG Export Plug-In . SVG Version: 6.00 Build 0)  -->
<svg version="1.1" xmlns="http://www.w3.org/2000/svg" xmlns:xlink="http://www.w3.org/1999/xlink" x="0px" y="0px"
	 viewBox="0 0 2324.32 632.37" style="enable-background:new 0 0 2324.32 632.37;" xml:space="preserve">
<style type="text/css">
	.st0{fill:#2A97D4;}
	.st1{fill:#FFFFFF;}
	.st2{fill:#13110C;}
	.st3{fill:#FFDA28;}
	.st4{fill:#161615;}
	.st5{font-family:'SourceSansPro-Regular';}
	.st6{font-size:128.5983px;}
	.st7{font-size:443.6641px;}
</style>
<g id="Layer_1">
	<g>
		<g>
			<path class="st0" d="M9.17,9.07v365.01C9.17,573.52,249.56,615,249.56,615l0.29-0.13c0,0,240.84-41.34,240.84-240.78V9.07H9.17z"
				/>
		</g>
		<g>
			<polygon class="st1" points="340.29,168.24 327.52,168.24 286.5,129.73 381.31,129.73 			"/>
		</g>
		<g>
			<path class="st2" d="M340.29,165.17c-3.89,0-11.6-0.11-11.52,0c-4.27-4-8.56-8.11-12.99-12.24
				c-9.02-8.43-18.03-16.86-27.04-25.44c-0.8,1.87-1.52,3.6-2.24,5.39h94.81c-0.88-1.79-1.68-3.52-2.35-5.39
				c-13.63,12.86-27.26,25.76-40.97,38.54c-2.91,2.83,1.47,7.25,4.53,4.53c13.63-12.91,27.31-25.6,40.89-38.54
				c2-1.89,0.45-5.36-2.11-5.36H286.5c-2.64,0-4.27,3.47-2.19,5.36c10.56,9.97,21.15,20,31.82,30.03
				c9.63,8.88,10.72,9.41,24.16,9.41C344.37,171.46,344.37,165.17,340.29,165.17"/>
		</g>
		<g>
			<rect x="278.41" y="123.91" class="st1" width="110.1" height="9.2"/>
		</g>
		<g>
			<path class="st2" d="M388.51,131.57h-59.47h-38.06c-10.96,0-10.96,2.77-10.96-6.19c0,0.21-0.4,0.19,3.55,0.19h13.71h40.57h38.03
				c11.92,0,11.07-2.93,11.07,7.55c0,2,3.07,2,3.07,0v-9.2c0-0.85-0.53-1.6-1.49-1.6h-110.1c-0.88,0-1.68,0.75-1.68,1.6v9.2
				c0,0.83,0.8,1.47,1.68,1.47h110.1C390.54,134.58,390.54,131.57,388.51,131.57"/>
		</g>
		<g>
			<path class="st1" d="M357.6,185.92c0,19.36-10.85,35.15-24.24,35.15c-13.33,0-24.14-15.79-24.14-35.15
				c0-19.26,14.59-55.93,24.14-55.93C342.93,129.99,357.6,166.66,357.6,185.92"/>
		</g>
		<g>
			<path class="st2" d="M355.97,185.92c-0.56,10.48-2.72,18.91-9.49,27.1c-14.67,18.24-30.7-3.39-34.48-16.48
				c-4.11-14.06,1.39-30.14,6.4-43.23c2.59-6.83,6-13.39,10.64-18.96c6.96-8.16,13.95,7.65,16.06,11.44
				C351.39,157.78,355.47,172.29,355.97,185.92c0.03,2.13,3.28,2.13,3.17,0c-0.64-15.36-6.37-47.05-21.39-55.79
				c-13.82-8.08-22.75,22.7-25.5,30.83c-6.83,20.3-7.92,47.02,12.7,59.56c21.23,13.02,33.31-20,34.19-34.59
				C359.25,183.95,356.16,183.95,355.97,185.92"/>
		</g>
		<g>
			<rect x="299.38" y="169.52" class="st1" width="68.2" height="239.29"/>
		</g>
		<g>
			<path class="st2" d="M367.57,406.59h-34.14c-7.81,0-31.9-1.28-31.9,1.36v-66.84V169.78c0,4.13,30.81,1.95,38.33,1.95h21.39
				c6.48,0,4.08-2.13,4.08-0.21v71.58v165.7c0,2.91,4.48,2.91,4.48,0V169.52c0-1.2-1.09-2.19-2.24-2.19h-68.2
				c-1.17,0-2.21,0.99-2.21,2.19v239.29c0,1.17,1.04,2.19,2.21,2.19h68.2C370.35,410.99,370.35,406.59,367.57,406.59"/>
		</g>
		<g>
			<rect x="297.4" y="373.9" class="st1" width="71.98" height="87.51"/>
		</g>
		<g>
			<path class="st2" d="M369.39,459.19h-37.66h-24.96h-7.39c-3.44,0,0.24,3.44,0.24,0.64v-85.8c0,2.69-3.68,2.11,1.12,2.11h8.61
				h29.37h23.71h6.21c-0.43,0-1.39-3.82-1.39,0.48v84.84c0,2.8,4.43,2.8,4.43,0V373.9c0-1.23-1.07-2.24-2.29-2.24H297.4
				c-1.28,0-2.24,1.01-2.24,2.24v87.56c0,1.17,0.96,2.16,2.24,2.16h71.98C372.27,463.62,372.27,459.19,369.39,459.19"/>
		</g>
		<g>
			<rect x="294.87" y="360.03" class="st1" width="77.24" height="27.58"/>
		</g>
		<g>
			<path class="st2" d="M372.11,385.98h-56.33H294.9c2.69,0,1.44-4.69,1.44-9.25v-16.35c0,1.89-0.85,1.25,3.71,1.25h13.04h38.06
				h13.92h4.59c3.39,0,0.83,0.35,0.83-1.25v27.23c0,2.08,3.15,2.08,3.15,0v-27.58c0-0.8-0.67-1.57-1.52-1.57h-77.24
				c-0.93,0-1.65,0.77-1.65,1.57v27.58c0,0.85,0.72,1.63,1.65,1.63h77.24C374.08,389.23,374.08,385.98,372.11,385.98"/>
		</g>
		<g>
			<rect x="296.42" y="339.62" class="st1" width="73.93" height="7.15"/>
		</g>
		<g>
			<path class="st2" d="M370.35,345.22h-39.87h-25.55h-7.17c-1.07,0,0.32-0.45,0.32-4.51c0,0.72-1.95,0.45,1.84,0.45h9.17h27.26H362
				c9.04,0,6.83-1.95,6.83,5.6c0,2.03,3.12,2.03,3.12,0v-7.15c0-0.96-0.64-1.6-1.6-1.6h-73.93c-0.77,0-1.55,0.64-1.55,1.6v7.15
				c0,0.93,0.77,1.55,1.55,1.55h73.93C372.48,348.32,372.48,345.22,370.35,345.22"/>
		</g>
		<g>
			<path class="st1" d="M382.96,133.49c-0.37,0-0.75-0.11-1.09-0.11c-20.62,0-37.9,15.98-43.53,37.69h27.92c0-0.05,0-0.13,0-0.19
				C366.27,154.16,373.04,139.91,382.96,133.49 M285.38,133.38c-0.45,0-0.72,0.11-1.07,0.11c9.81,6.43,16.78,20.67,16.78,37.39
				c0,0.05,0,0.13,0,0.19h27.87C323.33,149.36,305.97,133.38,285.38,133.38"/>
		</g>
		<g>
			<path class="st2" d="M382.96,131.89c-23.12-1.17-40.43,18.3-46.16,38.86c-0.37,0.91,0.45,1.97,1.55,1.97h27.92
				c0.8,0,1.55-0.8,1.55-1.65c-0.48-13.23,4.69-28.3,15.84-36.22c1.71-1.09,0.13-3.92-1.6-2.72c-6.05,4.29-9.95,9.87-13.07,16.51
				c-1.41,3.39-2.37,6.96-3.17,10.48c-0.43,1.97-0.61,3.97-0.8,5.95c-0.19,0.91-0.21,1.89-0.21,2.88c-0.83,3.12-0.37,3.71,1.39,1.57
				h-27.84c0.48,0.77,1.04,1.41,1.52,2.05c5.36-19.2,21.39-37.74,43.1-36.46C384.99,135.22,384.96,132.07,382.96,131.89"/>
		</g>
		<g>
			<path class="st2" d="M285.38,131.89c-0.45,0-0.72,0-1.07,0c-1.57,0.13-2.08,2.13-0.75,2.96c11.31,8.03,16.05,22.91,15.87,36.22
				c-0.05,0.85,0.64,1.65,1.65,1.65h27.87c1.01,0,1.84-1.07,1.52-1.97C324.5,149.62,308.13,132.58,285.38,131.89
				c-2.11-0.08-2.11,3.09,0,3.09c21.39,0.69,36.51,16.83,42.03,36.59c0.51-0.64,1.04-1.28,1.55-2.05h-27.44
				c-0.91-0.05-0.72,0.27,1.09,1.36c0.08-2.93-0.32-5.81-0.72-8.56c-0.43-4.67-1.84-9.01-3.52-13.26
				c-2.72-6.8-7.25-12.64-13.28-16.99c-0.21,1.09-0.45,2.05-0.77,3.04c0.35,0,0.61,0,1.07-0.13
				C287.43,134.93,287.43,131.7,285.38,131.89"/>
		</g>
		<g>
			<rect x="296.82" y="165.81" class="st1" width="73.29" height="9.34"/>
		</g>
		<g>
			<path class="st2" d="M370.11,173.63h-39.58h-25.28h-7.17c-2.43,0,0.35-0.21,0.35,0.53v-7.39c0,0.85-2.08,0.45,1.84,0.45h9.09
				h29.87h24.32c8.4,0,4.93-0.83,4.93,7.92c0,2.03,3.12,2.03,3.12,0v-9.33c0-0.96-0.59-1.65-1.49-1.65h-73.29
				c-0.88,0-1.6,0.69-1.6,1.65v9.33c0,0.83,0.72,1.55,1.6,1.55h73.29C372.11,176.69,372.11,173.63,370.11,173.63"/>
		</g>
		<g>
			<polygon class="st1" points="173.15,168.24 160.29,168.24 119.4,129.73 214.08,129.73 			"/>
		</g>
		<g>
			<path class="st2" d="M173.15,165.17c-3.81,0-11.76-0.11-11.47,0c-4.4-4-8.67-8.11-13.04-12.24
				c-9.04-8.43-18.06-16.86-27.04-25.44c-0.61,1.87-1.57,3.6-2.19,5.39h94.68c-0.75-1.79-1.47-3.52-2.27-5.39l-41.02,38.54
				c-2.88,2.83,1.6,7.25,4.59,4.53l40.97-38.54c2.08-1.89,0.43-5.36-2.27-5.36H119.4c-2.72,0-4.35,3.47-2.32,5.36
				c10.67,9.97,21.26,20,31.87,30.03c9.71,8.88,10.69,9.41,24.19,9.41C177.2,171.46,177.2,165.17,173.15,165.17"/>
		</g>
		<g>
			<rect x="111.3" y="123.91" class="st1" width="110.04" height="9.2"/>
		</g>
		<g>
			<path class="st2" d="M221.34,131.57H162H123.8c-10.96,0-10.96,2.77-10.96-6.19c0,0.21-0.35,0.19,3.6,0.19h13.66h40.51h38.11
				c11.9,0,11.07-2.93,11.07,7.55c0,2,3.15,2,3.15,0v-9.2c0-0.85-0.75-1.6-1.6-1.6H111.3c-0.88,0-1.6,0.75-1.6,1.6v9.2
				c0,0.83,0.72,1.47,1.6,1.47h110.04C223.39,134.58,223.39,131.57,221.34,131.57"/>
		</g>
		<g>
			<path class="st1" d="M190.48,185.92c0,19.36-10.88,35.15-24.3,35.15c-13.34,0-24.14-15.79-24.14-35.15
				c0-19.26,14.59-55.93,24.14-55.93C175.87,129.99,190.48,166.66,190.48,185.92"/>
		</g>
		<g>
			<path class="st2" d="M188.83,185.92c-0.56,10.48-2.72,18.91-9.52,27.1c-14.51,18.24-30.67-3.39-34.43-16.48
				c-4.19-14.06,1.36-30.14,6.4-43.23c2.45-6.83,6-13.39,10.59-18.96c7.01-8.16,14.03,7.65,16.06,11.44
				C184.27,157.78,188.27,172.29,188.83,185.92c0.11,2.13,3.17,2.13,3.17,0c-0.61-15.36-6.37-47.05-21.44-55.79
				c-13.76-8.08-22.7,22.7-25.42,30.83c-6.8,20.3-7.84,47.02,12.56,59.56c21.28,13.02,33.47-20,34.3-34.59
				C192.19,183.95,188.99,183.95,188.83,185.92"/>
		</g>
		<g>
			<rect x="132.26" y="169.52" class="st1" width="68.14" height="239.29"/>
		</g>
		<g>
			<path class="st2" d="M200.4,406.59h-34.08c-7.84,0-31.9-1.28-31.9,1.36v-66.84V169.78c0,4.13,30.83,1.95,38.27,1.95h21.42
				c6.56,0,4.05-2.13,4.05-0.21v71.58v165.7c0,2.91,4.43,2.91,4.43,0V169.52c0-1.2-0.91-2.19-2.19-2.19h-68.14
				c-1.28,0-2.4,0.99-2.4,2.19v239.29c0,1.17,1.12,2.19,2.4,2.19h68.14C203.34,410.99,203.34,406.59,200.4,406.59"/>
		</g>
		<g>
			<rect x="130.31" y="373.9" class="st1" width="71.98" height="87.51"/>
		</g>
		<g>
			<path class="st2" d="M202.3,459.19h-37.71h-24.99h-7.33c-3.41,0,0.21,3.44,0.21,0.64v-85.8c0,2.69-3.63,2.11,1.04,2.11h8.7h29.26
				h23.84h6.13c-0.29,0-1.39-3.82-1.39,0.48v84.84c0,2.8,4.51,2.8,4.51,0V373.9c0-1.23-1.07-2.24-2.27-2.24h-71.98
				c-1.28,0-2.24,1.01-2.24,2.24v87.56c0,1.17,0.96,2.16,2.24,2.16h71.98C205.15,463.62,205.15,459.19,202.3,459.19"/>
		</g>
		<g>
			<rect x="127.65" y="360.03" class="st1" width="77.29" height="27.58"/>
		</g>
		<g>
			<path class="st2" d="M204.94,385.98h-56.35h-20.75c2.64,0,1.47-4.69,1.47-9.25v-16.35c0,1.89-1.04,1.25,3.47,1.25h13.18H184
				h13.95h4.64c3.23,0,0.8,0.35,0.8-1.25v27.23c0,2.08,3.09,2.08,3.09,0v-27.58c0-0.8-0.69-1.57-1.55-1.57h-77.29
				c-0.75,0-1.63,0.77-1.63,1.57v27.58c0,0.85,0.88,1.63,1.63,1.63h77.29C206.96,389.23,206.96,385.98,204.94,385.98"/>
		</g>
		<g>
			<rect x="129.3" y="339.62" class="st1" width="74.04" height="7.15"/>
		</g>
		<g>
			<path class="st2" d="M203.34,345.22h-39.9H137.7h-7.07c-1.09,0,0.29-0.45,0.29-4.51c0,0.72-1.89,0.45,1.84,0.45h9.28h27.15h25.66
				c9.07,0,6.83-1.95,6.83,5.6c0,2.03,3.17,2.03,3.17,0v-7.15c0-0.96-0.75-1.6-1.52-1.6H129.3c-0.85,0-1.55,0.64-1.55,1.6v7.15
				c0,0.93,0.69,1.55,1.55,1.55h74.04C205.31,348.32,205.31,345.22,203.34,345.22"/>
		</g>
		<g>
			<path class="st1" d="M215.74,133.49c-0.35,0-0.64-0.11-0.93-0.11c-20.7,0-38.01,15.98-43.66,37.69h27.98c0-0.05,0-0.13,0-0.19
				C199.12,154.16,205.95,139.91,215.74,133.49 M118.26,133.38c-0.29,0-0.75,0.11-1.17,0.11c9.98,6.43,16.75,20.67,16.75,37.39
				c0,0.05,0,0.13,0,0.19h27.95C156.18,149.36,138.82,133.38,118.26,133.38"/>
		</g>
		<g>
			<path class="st2" d="M215.74,131.89c-22.99-1.31-40.25,18.3-46.14,38.86c-0.27,0.91,0.53,1.97,1.55,1.97h27.98
				c0.85,0,1.65-0.8,1.65-1.65c-0.64-13.23,4.72-28.3,15.76-36.22c1.65-1.09,0.08-3.92-1.55-2.72c-6,4.29-9.98,9.87-13.01,16.51
				c-1.57,3.39-2.45,6.96-3.28,10.48c-0.37,1.97-0.67,3.97-0.85,5.95c-0.13,0.91-0.16,1.89-0.16,2.88
				c-0.85,3.12-0.37,3.71,1.36,1.57h-27.9c0.45,0.77,0.99,1.41,1.55,2.05c5.41-19.2,21.42-37.74,43.05-36.46
				C217.85,135.22,217.85,132.07,215.74,131.89"/>
		</g>
		<g>
			<path class="st2" d="M118.26,131.89c-0.29,0-0.75,0-1.17,0c-1.6,0.13-2.03,2.13-0.67,2.96c11.2,7.92,16.35,22.99,15.84,36.22
				c0,0.85,0.77,1.65,1.57,1.65h27.95c1.04,0,1.84-1.07,1.6-1.97C157.44,149.62,141.06,132.58,118.26,131.89
				c-2.05-0.08-2.05,3.09,0,3.09c21.34,0.69,36.49,16.83,42.01,36.59c0.59-0.64,0.96-1.28,1.52-2.05h-27.39
				c-0.99-0.05-0.72,0.27,0.99,1.36c0.08-2.91-0.29-5.81-0.64-8.56c-0.56-4.67-1.81-9.01-3.47-13.26
				c-2.72-6.8-7.25-12.64-13.31-16.99c-0.19,1.09-0.53,2.05-0.88,3.04c0.43,0,0.88,0,1.17-0.13
				C120.23,134.93,120.26,131.7,118.26,131.89"/>
		</g>
		<g>
			<rect x="129.65" y="165.81" class="st1" width="73.4" height="9.34"/>
		</g>
		<g>
			<path class="st2" d="M203.04,173.63h-39.61h-25.39h-7.07c-2.35,0,0.37-0.21,0.37,0.53v-7.39c0,0.85-2.05,0.45,1.76,0.45h9.09
				h29.74h24.43c8.48,0,5.01-0.83,5.01,7.92c0,2.03,3.09,2.03,3.09,0v-9.33c0-0.96-0.72-1.65-1.44-1.65h-73.4
				c-0.8,0-1.52,0.69-1.52,1.65v9.33c0,0.83,0.72,1.55,1.52,1.55h73.4C205.02,176.69,205.02,173.63,203.04,173.63"/>
		</g>
		<g>
			<polygon class="st3" points="249.85,32.35 257.24,55.45 281.45,55.34 261.75,69.4 269.32,92.44 249.85,78.12 230.41,92.44 
				237.96,69.4 218.19,55.34 242.52,55.45 			"/>
		</g>
		<g>
			<path class="st2" d="M248.04,32.83l7.36,23.2c0.19,0.69,0.96,1.31,1.84,1.31c8.05-0.03,16.14-0.03,24.22-0.16l-0.93-3.57
				c-6.53,4.8-13.07,9.47-19.82,14.16c-0.59,0.51-1.09,1.28-0.77,2.19c2.59,7.65,5.04,15.28,7.66,23.04
				c0.85-0.77,1.73-1.47,2.77-2.24c-6.56-4.85-12.99-9.47-19.6-14.32c-0.37-0.35-1.41-0.35-1.87,0
				c-6.56,4.85-12.94,9.47-19.42,14.32c0.88,0.77,1.73,1.47,2.69,2.24c2.56-7.76,5.15-15.39,7.63-23.04
				c0.24-0.91-0.27-1.68-0.88-2.19c-6.53-4.69-13.15-9.36-19.66-14.16l-1.07,3.57c8.19,0.13,16.16,0.13,24.32,0.16
				c0.83,0,1.65-0.61,1.84-1.31l7.31-23.2c0.75-2.21-2.91-3.31-3.63-1.01c-2.32,7.55-4.88,15.23-7.33,22.8
				c0.56-1.57,2.45-1.07-0.69-1.07c-2.77,0-5.65-0.03-8.43-0.11c-4.37,0-8.91,0-13.39,0c-1.92-0.03-2.32,2.4-0.83,3.49
				c6.48,4.64,12.99,9.31,19.34,14c-1.52-1.12-0.35-2.53-1.36,0.43c-0.99,2.61-1.81,5.17-2.69,7.92c-1.39,4.24-2.72,8.35-4.08,12.64
				c-0.56,1.47,1.36,3.17,2.69,2.16c6.43-4.72,12.91-9.47,19.28-14.24c-1.15,0.91-1.84-0.32,0.27,1.39
				c2.37,1.68,4.59,3.31,6.93,4.85c3.49,2.77,7.01,5.44,10.69,8c1.25,1.01,3.28-0.69,2.75-2.16c-2.48-7.6-4.93-15.15-7.42-22.7
				c0.4,1.36-1.76,2.32,0.99,0.27c2.32-1.55,4.56-3.17,6.85-4.67c3.6-2.56,7.12-5.36,10.75-7.89c1.49-1.09,1.12-3.52-0.91-3.49
				c-8,0-15.95,0.08-23.87,0.11c1.55,0,1.71,2.08,0.67-1.12c-0.8-2.64-1.68-5.15-2.51-7.84c-1.28-4.32-2.75-8.51-4.08-12.78
				C250.94,29.52,247.21,30.62,248.04,32.83"/>
		</g>
		<g>
			<polygon class="st3" points="71.58,32.35 78.92,55.45 103.21,55.34 83.51,69.4 91.05,92.44 71.58,78.12 52.06,92.44 59.79,69.4 
				40.03,55.34 64.25,55.45 			"/>
		</g>
		<g>
			<path class="st2" d="M69.66,32.83l7.39,23.2c0.35,0.69,1.04,1.31,1.87,1.31c8.05-0.03,16.19-0.03,24.3-0.16l-1.01-3.57
				c-6.56,4.8-13.07,9.47-19.58,14.16c-0.69,0.51-1.23,1.28-1.01,2.19c2.56,7.65,5.17,15.28,7.63,23.04
				c0.91-0.77,1.81-1.47,2.83-2.24c-6.53-4.85-13.07-9.47-19.5-14.32c-0.48-0.35-1.57-0.35-1.92,0c-6.53,4.85-13.12,9.47-19.5,14.32
				c0.91,0.77,1.81,1.47,2.72,2.24c2.61-7.76,5.09-15.39,7.57-23.04c0.35-0.91-0.11-1.68-0.91-2.19
				c-6.51-4.69-13.02-9.36-19.63-14.16l-0.88,3.57l24.22,0.16c0.83,0,1.63-0.61,1.81-1.31l7.33-23.2c0.8-2.21-2.88-3.31-3.73-1.01
				c-2.32,7.55-4.69,15.23-7.15,22.8c0.48-1.57,2.37-1.07-0.8-1.07c-2.77,0-5.68-0.03-8.4-0.11H40.03c-2.11-0.03-2.37,2.4-1.01,3.49
				c6.43,4.64,12.93,9.31,19.42,14c-1.44-1.12-0.45-2.53-1.36,0.43c-0.91,2.61-1.76,5.17-2.67,7.92c-1.44,4.24-2.72,8.35-4.21,12.64
				c-0.51,1.47,1.49,3.17,2.77,2.16c6.45-4.72,12.96-9.47,19.26-14.24c-1.07,0.91-1.84-0.32,0.43,1.39
				c2.29,1.68,4.51,3.31,6.75,4.85c3.52,2.77,7.12,5.44,10.7,8c1.49,1.01,3.28-0.69,2.77-2.16c-2.51-7.6-4.96-15.15-7.47-22.7
				c0.56,1.36-1.6,2.32,1.12,0.27c2.21-1.55,4.45-3.17,6.77-4.67c3.6-2.56,7.18-5.36,10.77-7.89c1.49-1.09,1.07-3.52-0.85-3.49
				c-8.05,0-15.95,0.08-23.98,0.11c1.6,0,1.73,2.08,0.75-1.12c-0.77-2.64-1.65-5.15-2.56-7.84c-1.23-4.32-2.69-8.51-4.03-12.78
				C72.65,29.52,69.02,30.62,69.66,32.83"/>
		</g>
		<g>
			<polygon class="st3" points="428.12,160.85 435.5,184 459.72,183.89 440.07,198 447.67,221.07 428.12,206.62 408.65,221.07 
				416.25,198 396.54,183.89 420.84,184 			"/>
		</g>
		<g>
			<path class="st2" d="M426.36,161.41c2.4,7.73,4.85,15.39,7.34,23.12c0.19,0.77,0.88,1.36,1.81,1.28c8.16,0,16.22-0.11,24.22-0.11
				c-0.32-1.09-0.61-2.27-0.91-3.41l-19.76,14.06c-0.64,0.45-1.09,1.36-0.75,2.16c2.45,7.6,5.09,15.26,7.55,22.91
				c0.91-0.67,1.81-1.36,2.75-2.03c-6.45-4.77-12.96-9.68-19.52-14.46c-0.48-0.37-1.36-0.37-1.84,0
				c-6.51,4.77-13.07,9.68-19.5,14.46c0.85,0.67,1.76,1.36,2.75,2.03c2.51-7.65,5.12-15.31,7.55-22.91c0.4-0.8-0.24-1.71-0.77-2.16
				c-6.61-4.69-13.15-9.47-19.71-14.06c-0.27,1.15-0.72,2.32-1.01,3.41c8.13,0,16.19,0.11,24.3,0.11c0.83,0.08,1.55-0.51,1.76-1.28
				c2.48-7.73,4.96-15.39,7.36-23.12c0.77-2.37-2.93-3.31-3.6-1.01l-7.31,22.8c0.56-1.65,2.4-1.04-0.72-1.09
				c-2.83-0.08-5.6-0.08-8.38-0.11c-4.61-0.08-8.96-0.08-13.41-0.08c-1.92,0-2.4,2.61-0.96,3.55c6.51,4.69,12.93,9.25,19.55,14.03
				c-1.63-1.17-0.51-2.53-1.49,0.37c-0.91,2.53-1.79,5.33-2.61,7.95l-4.19,12.62c-0.51,1.6,1.49,3.17,2.72,2.08
				c6.48-4.69,12.88-9.42,19.36-14.08c-1.2,0.91-1.97-0.27,0.29,1.28c2.27,1.71,4.48,3.31,6.77,4.96c3.6,2.61,7.15,5.31,10.69,7.84
				c1.31,1.09,3.33-0.48,2.83-2.08c-2.56-7.47-4.96-15.07-7.55-22.67c0.61,1.39-1.68,2.29,1.09,0.45c2.19-1.68,4.53-3.31,6.83-5.01
				c3.58-2.59,7.12-5.04,10.75-7.73c1.55-0.93,1.15-3.55-0.91-3.55c-7.92,0-16,0.11-23.92,0.24c1.63,0,1.71,2,0.8-1.07
				c-0.91-2.69-1.68-5.31-2.56-8l-4.08-12.7C429.21,158.1,425.56,159.04,426.36,161.41"/>
		</g>
		<g>
			<polygon class="st3" points="428.12,289.35 435.5,312.47 459.72,312.34 440.07,326.53 447.67,349.46 428.12,335.2 408.65,349.46 
				416.25,326.53 396.54,312.34 420.84,312.47 			"/>
		</g>
		<g>
			<path class="st2" d="M426.36,289.94c2.4,7.65,4.85,15.36,7.34,22.99c0.19,0.93,0.88,1.5,1.81,1.5c8.16,0,16.22,0,24.22-0.05
				c-0.32-1.23-0.61-2.48-0.91-3.63c-6.64,4.72-13.15,9.5-19.76,14.19c-0.64,0.45-1.09,1.2-0.75,2.08
				c2.45,7.57,5.09,15.34,7.55,22.96c0.91-0.69,1.81-1.36,2.75-2.11c-6.45-4.88-12.96-9.66-19.52-14.32c-0.48-0.32-1.36-0.32-1.84,0
				c-6.51,4.67-13.07,9.44-19.5,14.32c0.85,0.75,1.76,1.41,2.75,2.11c2.51-7.63,5.12-15.39,7.55-22.96c0.4-0.88-0.24-1.63-0.77-2.08
				c-6.61-4.69-13.15-9.47-19.71-14.19c-0.27,1.15-0.72,2.4-1.01,3.63c8.13,0.05,16.19,0.05,24.3,0.05c0.83,0,1.55-0.56,1.76-1.5
				c2.48-7.63,4.96-15.34,7.36-22.99c0.77-2.32-2.93-3.33-3.6-0.99l-7.31,22.75c0.56-1.68,2.4-1.09-0.72-1.09
				c-2.83,0-5.6,0-8.38-0.08c-4.61,0-8.96-0.05-13.41-0.05c-1.92,0-2.4,2.45-0.96,3.55c6.51,4.56,12.93,9.31,19.55,13.95
				c-1.63-1.15-0.51-2.53-1.49,0.51c-0.91,2.59-1.79,5.2-2.61,7.79l-4.19,12.8c-0.51,1.39,1.49,3.04,2.72,2.03
				c6.48-4.77,12.88-9.33,19.36-14.08c-1.2,0.85-1.97-0.35,0.29,1.2c2.27,1.65,4.48,3.49,6.77,5.09l10.69,7.79
				c1.31,1.01,3.33-0.64,2.83-2.03c-2.56-7.63-4.96-15.28-7.55-22.8c0.61,1.47-1.68,2.35,1.09,0.37c2.19-1.65,4.53-3.2,6.83-4.77
				c3.58-2.59,7.12-5.17,10.75-7.84c1.55-1.09,1.15-3.55-0.91-3.55l-23.92,0.13c1.63,0,1.71,2.08,0.8-0.96
				c-0.91-2.72-1.68-5.36-2.56-7.92l-4.08-12.78C429.21,286.6,425.56,287.62,426.36,289.94"/>
		</g>
		<g>
			<polygon class="st3" points="428.12,32.35 435.5,55.45 459.72,55.34 440.07,69.4 447.67,92.44 428.12,78.12 408.65,92.44 
				416.25,69.4 396.54,55.34 420.84,55.45 			"/>
		</g>
		<g>
			<path class="st2" d="M426.36,32.83l7.34,23.2c0.19,0.69,0.88,1.31,1.81,1.31l24.22-0.16l-0.91-3.57l-19.76,14.16
				c-0.64,0.51-1.09,1.28-0.75,2.19c2.45,7.65,5.09,15.28,7.55,23.04c0.91-0.77,1.81-1.47,2.75-2.24
				c-6.45-4.85-12.96-9.47-19.52-14.32c-0.48-0.35-1.36-0.35-1.84,0c-6.51,4.85-13.07,9.47-19.5,14.32
				c0.85,0.77,1.76,1.47,2.75,2.24c2.51-7.76,5.12-15.39,7.55-23.04c0.4-0.91-0.24-1.68-0.77-2.19
				c-6.61-4.69-13.15-9.36-19.71-14.16l-1.01,3.57c8.13,0.13,16.19,0.13,24.3,0.16c0.83,0,1.55-0.61,1.76-1.31l7.36-23.2
				c0.77-2.21-2.93-3.31-3.6-1.01c-2.48,7.55-4.83,15.23-7.31,22.8c0.56-1.57,2.4-1.07-0.72-1.07c-2.83,0-5.6-0.03-8.38-0.11
				c-4.61,0-8.96,0-13.41,0c-1.92-0.03-2.4,2.4-0.96,3.49c6.51,4.64,12.93,9.31,19.55,14c-1.63-1.12-0.51-2.53-1.49,0.43
				c-0.91,2.61-1.79,5.17-2.61,7.92c-1.47,4.24-2.72,8.35-4.19,12.64c-0.51,1.47,1.49,3.17,2.72,2.16
				c6.48-4.72,12.88-9.47,19.36-14.24c-1.2,0.91-1.97-0.32,0.29,1.39c2.27,1.68,4.48,3.31,6.77,4.85c3.6,2.77,7.15,5.44,10.69,8
				c1.31,1.01,3.33-0.69,2.83-2.16c-2.56-7.6-4.96-15.15-7.55-22.7c0.61,1.36-1.68,2.32,1.09,0.27c2.19-1.55,4.53-3.17,6.83-4.67
				c3.58-2.56,7.12-5.36,10.75-7.89c1.55-1.09,1.15-3.52-0.91-3.49c-7.92,0-16,0.08-23.92,0.11c1.63,0,1.71,2.08,0.8-1.12
				c-0.91-2.64-1.68-5.15-2.56-7.84c-1.36-4.32-2.72-8.51-4.08-12.78C429.21,29.52,425.56,30.62,426.36,32.83"/>
		</g>
		<g>
			<polygon class="st3" points="71.58,160.85 78.92,184 103.21,183.89 83.51,198 91.05,221.07 71.58,206.62 52.06,221.07 59.79,198 
				40.03,183.89 64.25,184 			"/>
		</g>
		<g>
			<path class="st2" d="M69.66,161.41c2.56,7.73,5.07,15.39,7.39,23.12c0.35,0.77,1.04,1.36,1.87,1.28c8.05,0,16.19-0.11,24.3-0.11
				c-0.37-1.09-0.64-2.27-1.01-3.41c-6.56,4.59-13.07,9.36-19.58,14.06c-0.69,0.45-1.23,1.36-1.01,2.16
				c2.56,7.6,5.17,15.26,7.63,22.91c0.91-0.67,1.81-1.36,2.83-2.03c-6.53-4.77-13.07-9.68-19.5-14.46c-0.48-0.37-1.57-0.37-1.92,0
				c-6.53,4.77-13.12,9.68-19.5,14.46c0.91,0.67,1.81,1.36,2.72,2.03c2.61-7.65,5.09-15.31,7.57-22.91c0.35-0.8-0.11-1.71-0.91-2.16
				c-6.51-4.69-13.02-9.47-19.63-14.06c-0.32,1.15-0.69,2.32-0.88,3.41c8.08,0,16.14,0.11,24.22,0.11c0.83,0.08,1.63-0.51,1.81-1.28
				c2.48-7.73,4.85-15.39,7.33-23.12c0.8-2.37-2.88-3.31-3.73-1.01l-7.15,22.8c0.48-1.65,2.37-1.04-0.8-1.09
				c-2.77-0.08-5.68-0.08-8.4-0.11l-13.28-0.08c-2.11,0-2.37,2.61-1.01,3.55c6.43,4.69,12.93,9.25,19.42,14.03
				c-1.44-1.17-0.45-2.53-1.36,0.37c-0.91,2.53-1.76,5.33-2.67,7.95c-1.44,4.13-2.72,8.48-4.21,12.62c-0.51,1.6,1.49,3.17,2.77,2.08
				c6.45-4.69,12.96-9.42,19.26-14.08c-1.07,0.91-1.84-0.27,0.43,1.28c2.29,1.71,4.51,3.31,6.75,4.96c3.52,2.61,7.12,5.31,10.7,7.84
				c1.49,1.09,3.28-0.48,2.77-2.08c-2.51-7.47-4.96-15.07-7.47-22.67c0.56,1.39-1.6,2.29,1.12,0.45c2.21-1.68,4.45-3.31,6.77-5.01
				c3.6-2.59,7.18-5.04,10.77-7.73c1.49-0.93,1.07-3.55-0.85-3.55c-8.05,0-15.95,0.11-23.98,0.24c1.6,0,1.73,2,0.75-1.07
				c-0.77-2.69-1.65-5.31-2.56-8l-4.03-12.7C72.65,158.1,69.02,159.04,69.66,161.41"/>
		</g>
		<g>
			<polygon class="st3" points="71.58,289.35 78.92,312.47 103.21,312.34 83.51,326.53 91.05,349.46 71.58,335.2 52.06,349.46 
				59.79,326.53 40.03,312.34 64.25,312.47 			"/>
		</g>
		<g>
			<path class="st2" d="M69.66,289.94c2.56,7.65,5.07,15.36,7.39,22.99c0.35,0.93,1.04,1.5,1.87,1.5c8.05,0,16.19,0,24.3-0.05
				c-0.37-1.23-0.64-2.48-1.01-3.63c-6.56,4.72-13.07,9.5-19.58,14.19c-0.69,0.45-1.23,1.2-1.01,2.08
				c2.56,7.57,5.17,15.34,7.63,22.96c0.91-0.69,1.81-1.36,2.83-2.11c-6.53-4.88-13.07-9.66-19.5-14.32c-0.48-0.32-1.57-0.32-1.92,0
				c-6.53,4.67-13.12,9.44-19.5,14.32c0.91,0.75,1.81,1.41,2.72,2.11c2.61-7.63,5.09-15.39,7.57-22.96
				c0.35-0.88-0.11-1.63-0.91-2.08c-6.51-4.69-13.02-9.47-19.63-14.19c-0.32,1.15-0.69,2.4-0.88,3.63
				c8.08,0.05,16.14,0.05,24.22,0.05c0.83,0,1.63-0.56,1.81-1.5c2.48-7.63,4.85-15.34,7.33-22.99c0.8-2.32-2.88-3.33-3.73-0.99
				l-7.15,22.75c0.48-1.68,2.37-1.09-0.8-1.09c-2.77,0-5.68,0-8.4-0.08c-4.45,0-8.91-0.05-13.28-0.05c-2.11,0-2.37,2.45-1.01,3.55
				c6.43,4.56,12.93,9.31,19.42,13.95c-1.44-1.15-0.45-2.53-1.36,0.51c-0.91,2.59-1.76,5.2-2.67,7.79
				c-1.44,4.27-2.72,8.61-4.21,12.8c-0.51,1.39,1.49,3.04,2.77,2.03c6.45-4.77,12.96-9.33,19.26-14.08
				c-1.07,0.85-1.84-0.35,0.43,1.2c2.29,1.65,4.51,3.49,6.75,5.09c3.52,2.56,7.12,5.17,10.7,7.79c1.49,1.01,3.28-0.64,2.77-2.03
				c-2.51-7.63-4.96-15.28-7.47-22.8c0.56,1.47-1.6,2.35,1.12,0.37c2.21-1.65,4.45-3.2,6.77-4.77c3.6-2.59,7.18-5.17,10.77-7.84
				c1.49-1.09,1.07-3.55-0.85-3.55c-8.05,0-15.95,0.13-23.98,0.13c1.6,0,1.73,2.08,0.75-0.96c-0.77-2.72-1.65-5.36-2.56-7.92
				l-4.03-12.78C72.65,286.6,69.02,287.62,69.66,289.94"/>
		</g>
		<g>
			<path class="st1" d="M165.73,411.63c-47.95,0-93.16,22.11-133.22,61.16C93.08,587.95,249.56,615,249.56,615l0.29-0.13
				c0,0,59.85-10.29,119.96-45.29C316.69,471.75,244.81,411.63,165.73,411.63"/>
		</g>
		<g>
			<path class="st2" d="M249.34,617.45h-0.05c-1.68-0.35-158.66-28.51-218.89-143.43l-0.99-1.81l1.33-1.28
				c42.03-41.02,87.43-61.74,134.98-61.74c77.26,0,150.48,56.57,206.22,159.22l1.33,2.21l-2.24,1.23
				c-60.09,34.96-120.66,45.61-121.19,45.61H249.34z M35.74,473.3c58.33,108.63,205.52,137.49,213.98,139.09h0.13
				c0.27-0.19,58.04-10.24,116.58-43.77c-54.83-99.59-125.94-154.4-200.7-154.4C120.02,414.22,76.33,434.06,35.74,473.3z"/>
		</g>
		<g>
			<path class="st1" d="M469.51,468.31c-38.78-34.43-82.04-53.79-127.75-53.79c-80.71,0-153.86,59.85-207.92,157.38
				C192.4,605.05,249.56,615,249.56,615l0.29-0.13C249.85,614.86,410.78,587.26,469.51,468.31"/>
		</g>
		<g>
			<path class="st2" d="M249.34,617.45h-0.08c-0.56-0.08-58.33-10.38-116.63-43.47l-2.27-1.17l1.2-2.13
				c56.73-102.34,131.46-158.58,210.19-158.58c45.18,0,88.81,18.16,129.46,54.17l1.36,1.28l-0.8,1.76
				c-59.53,120.63-220.49,148.16-221.93,148.16H249.34z M137.3,570.94c54.33,30.19,107.51,40.49,112.42,41.45h0.13
				c1.25-0.24,158.1-28.11,216.51-143.54c-39.34-34.27-81.19-51.74-124.61-51.74C265.51,417.1,192.91,471.64,137.3,570.94z"/>
		</g>
		<g>
			<path class="st2" d="M249.85,620.04l-1.04-0.19C246.36,619.53,4,575.47,4,374.08V4h491.73v370.08
				c0,198-228.57,243.16-244.97,245.77l0,0L249.85,620.04z M14.13,14.13v359.95c0,186.88,219.93,232.67,235.5,235.66
				c13.68-2.59,235.93-47.23,235.93-235.66V14.13H14.13z"/>
		</g>
	</g>
</g>
<g id="Calque_2">
	<text transform="matrix(1 0 0 1 787.7964 174.6089)" class="st4 st5 st6">Commune de</text>
	<text transform="matrix(1 0 0 1 540.8569 437.8882)" class="st4 st5 st7">Semsales</text>
</g>
</svg>
